name c:\Users\T11648sTb\Documents\VSCODE\Pred_Sim_Sprinting\Pred_Sim_Sprinting\MainFunctions\ExperimentalData\IK_Splined\Splined_500_meshInts_p02_maxVel_01.mot
datacolumns 38
datarows 10
range 0.05600000 0.05696726
endheader
                time	/jointset/ground_pelvis/pelvis_tilt/value	/jointset/ground_pelvis/pelvis_list/value	/jointset/ground_pelvis/pelvis_rotation/value	/jointset/ground_pelvis/pelvis_tx/value	/jointset/ground_pelvis/pelvis_ty/value	/jointset/ground_pelvis/pelvis_tz/value	/jointset/hip_r/hip_flexion_r/value	/jointset/hip_r/hip_adduction_r/value	/jointset/hip_r/hip_rotation_r/value	/jointset/knee_r/knee_angle_r/value	/jointset/ankle_r/ankle_angle_r/value	/jointset/subtalar_r/subtalar_angle_r/value	/jointset/mtp_r/mtp_angle_r/value	/jointset/hip_l/hip_flexion_l/value	/jointset/hip_l/hip_adduction_l/value	/jointset/hip_l/hip_rotation_l/value	/jointset/knee_l/knee_angle_l/value	/jointset/ankle_l/ankle_angle_l/value	/jointset/subtalar_l/subtalar_angle_l/value	/jointset/mtp_l/mtp_angle_l/value	/jointset/back/lumbar_extension/value	/jointset/back/lumbar_bending/value	/jointset/back/lumbar_rotation/value	/jointset/acromial_r/arm_flex_r/value	/jointset/acromial_r/arm_add_r/value	/jointset/acromial_r/arm_rot_r/value	/jointset/elbow_r/elbow_flex_r/value	/jointset/radioulnar_r/pro_sup_r/value	/jointset/radius_hand_r/wrist_flex_r/value	/jointset/radius_hand_r/wrist_dev_r/value	/jointset/acromial_l/arm_flex_l/value	/jointset/acromial_l/arm_add_l/value	/jointset/acromial_l/arm_rot_l/value	/jointset/elbow_l/elbow_flex_l/value	/jointset/radioulnar_l/pro_sup_l/value	/jointset/radius_hand_l/wrist_flex_l/value	/jointset/radius_hand_l/wrist_dev_l/value	
          0.05600000	          4.99930159	         -1.46373305	         -0.25776319	         -1.87121466	          1.00263233	          0.28681654	         29.24026972	         -0.78652057	         -2.37914183	        -32.26936812	        -11.66866834	        -12.48869523	          3.45205773	         19.23433415	         -1.10140012	        -11.55804968	       -133.53295380	        -15.01130516	        -13.52683631	         11.45083895	        -26.72652122	          7.05731329	         -5.71782780	        -21.09382145	        -14.33369720	         -4.39168812	        101.58231768	         65.50953991	         -8.37888651	          6.78380357	        -15.45028272	        -14.55228340	         -2.22961543	         58.51448841	         69.95154621	         -3.37224652	         11.19789332	
          0.05606946	          5.01412869	         -1.46610859	         -0.28581762	         -1.87053280	          1.00260709	          0.28687962	         29.18354698	         -0.77344936	         -2.37013115	        -32.25893508	        -11.64833451	        -12.47798481	          3.43592071	         19.26433640	         -1.12456895	        -11.58187509	       -133.56512100	        -14.99003360	        -13.51091329	         11.45736539	        -26.74219092	          7.03892373	         -5.71294287	        -21.01111770	        -14.33426991	         -4.31416519	        101.58780163	         65.52264516	         -8.38670283	          6.79413274	        -15.50226122	        -14.55064414	         -2.24474094	         58.46955995	         69.94464969	         -3.36871010	         11.21372316	
          0.05628894	          5.06086643	         -1.47351853	         -0.37429815	         -1.86837809	          1.00252709	          0.28707871	         29.00445698	         -0.73235860	         -2.34179996	        -32.22625430	        -11.58295965	        -12.44404883	          3.38467788	         19.35928907	         -1.19764502	        -11.65703336	       -133.66666181	        -14.92292534	        -13.46078878	         11.47791800	        -26.79147223	          6.98078356	         -5.69773696	        -20.74982420	        -14.33594033	         -4.06928773	        101.60499404	         65.56390219	         -8.41143593	          6.82679999	        -15.66661950	        -14.54530695	         -2.29294360	         58.32772074	         69.92322473	         -3.35750694	         11.26381078	
          0.05644800	          5.09463188	         -1.47879444	         -0.43827052	         -1.86681621	          1.00246885	          0.28722277	         28.87479168	         -0.70278280	         -2.32139881	        -32.20284653	        -11.53448755	        -12.41936083	          3.34729388	         19.42826042	         -1.25048209	        -11.71138872	       -133.74015889	        -14.87438905	        -13.42464648	         11.49274697	        -26.82696538	          6.93860942	         -5.68693431	        -20.56047188	        -14.33701347	         -3.89188270	        101.61732659	         65.59365320	         -8.42939665	          6.85050551	        -15.78585996	        -14.54128592	         -2.32827694	         58.22504049	         69.90805618	         -3.34935838	         11.30018098	
          0.05644890	          5.09482220	         -1.47882399	         -0.43863123	         -1.86680739	          1.00246852	          0.28722359	         28.87406013	         -0.70261636	         -2.32128398	        -32.20271509	        -11.53421131	        -12.41922126	          3.34708228	         19.42865010	         -1.25078002	        -11.71169524	       -133.74057349	        -14.87411534	        -13.42444295	         11.49283050	        -26.82716517	          6.93837128	         -5.68687386	        -20.55940318	        -14.33701919	         -3.89088155	        101.61739590	         65.59382076	         -8.42949811	          6.85063938	        -15.78653329	        -14.54126285	         -2.32847733	         58.22446123	         69.90797145	         -3.34931232	         11.30038643	
          0.05651836	          5.10953819	         -1.48110199	         -0.46652684	         -1.86612525	          1.00244301	          0.28728644	         28.81747093	         -0.68975658	         -2.31240976	        -32.19256885	        -11.51274784	        -12.40841459	          3.33069061	         19.45881244	         -1.27382017	        -11.73540139	       -133.77264351	        -14.85294716	        -13.40871114	         11.49928823	        -26.84260410	          6.91994321	         -5.68221441	        -20.47671869	        -14.33744985	         -3.81342915	        101.62274770	         65.60677132	         -8.43735120	          6.86099970	        -15.83863870	        -14.53946541	         -2.34401532	         58.17965351	         69.90144602	         -3.34574580	         11.31628811	
          0.05673783	          5.15591477	         -1.48819291	         -0.55450083	         -1.86396965	          1.00236211	          0.28748480	         28.63881922	         -0.64935332	         -2.28450935	        -32.16082083	        -11.44373814	        -12.37416658	          3.27863516	         19.55428702	         -1.34648051	        -11.81017976	       -133.87386311	        -14.78617819	        -13.35921872	         11.51961861	        -26.89113667	          6.86167334	         -5.66772349	        -20.21549570	        -14.33865435	         -3.56880137	        101.63952336	         65.64751683	         -8.46220259	          6.89376661	        -16.00340316	        -14.53361862	         -2.39354440	         58.03821637	         69.88123244	         -3.33444405	         11.36660678	
          0.05689690	          5.18940891	         -1.49322734	         -0.61810158	         -1.86240712	          1.00230318	          0.28762833	         28.50948710	         -0.62029430	         -2.26442006	        -32.13811428	        -11.39256942	        -12.34924487	          3.24065457	         19.62365189	         -1.39900761	        -11.86425686	       -133.94711393	        -14.73789980	        -13.32356107	         11.53428161	        -26.92606860	          6.81939761	         -5.65744145	        -20.02620359	        -14.33937356	         -3.39160274	        101.65155461	         65.67687547	         -8.48025109	          6.91754554	        -16.12294290	        -14.52921896	         -2.42986106	         57.93584705	         69.86697874	         -3.32622072	         11.40314828	
          0.05689780	          5.18959768	         -1.49325550	         -0.61846018	         -1.86239830	          1.00230285	          0.28762914	         28.50875747	         -0.62013082	         -2.26430699	        -32.13798686	        -11.39227782	        -12.34910396	          3.24043959	         19.62404382	         -1.39930377	        -11.86456180	       -133.94752711	        -14.73762758	        -13.32336033	         11.53436420	        -26.92626518	          6.81915888	         -5.65738394	        -20.02513525	        -14.33937725	         -3.39060282	        101.65162221	         65.67704076	         -8.48035305	          6.91767983	        -16.12361792	        -14.52919374	         -2.43006706	         57.93526959	         69.86689926	         -3.32617423	         11.40335471	
          0.05696726	          5.20419264	         -1.49542532	         -0.64619231	         -1.86171587	          1.00227704	          0.28769175	         28.45231790	         -0.60750164	         -2.25556886	        -32.12815355	        -11.36962017	        -12.33819323	          3.22378537	         19.65438208	         -1.42220625	        -11.88814565	       -133.97948601	        -14.71657522	        -13.30784722	         11.54074815	        -26.94145409	          6.80068443	         -5.65295248	        -19.94247948	        -14.33964903	         -3.31324731	        101.65684263	         65.68981423	         -8.48824501	          6.92807252	        -16.17585534	        -14.52722847	         -2.44604031	         57.89060285	         69.86078315	         -3.32257418	         11.41933222	
